<?xml version="1.0" encoding="utf-8"?>
<?xml-stylesheet type="text/xsl" href="rss1.xsl"?>
<rss version="2.0" xmlns:atom="http://www.w3.org/2005/Atom" xmlns:content="http://purl.org/rss/1.0/modules/content/" xmlns:dc="http://purl.org/dc/elements/1.1/" xmlns:media="http://search.yahoo.com/mrss/">
<channel>
 <title>Getty</title>
 <link>http://www.gettyimg.com/</link>
 <atom:link href="http://www.gettyimg.com/" rel="self" type="application/rss+xml" />

 
                <item>
                <title><![CDATA[【HD Live Performances】UHDTV 4K - Bebe Rexha - Live @ The Town 2023 UHDTV H265 2160p DD2.0-ilya2129]]></title>
                <link><![CDATA[https://sharemania.us/threads/bebe-rexha-live-the-town-2023-uhdtv-h265-2160p-dd2-0-ilya2129.227780/]]></link>
                <description><![CDATA[<article>
<blockquote class="messageText SelectQuoteContainer ugc baseHtml">
<div style="text-align: center"><img src="https://i122.fastpic.org/big/2023/0903/f2/ce9f496df0f384cc9c966a9eba2bd3f2.png" class="bbCodeImage LbImage" alt="[​IMG]" data-url="https://i122.fastpic.org/big/2023/0903/f2/ce9f496df0f384cc9c966a9eba2bd3f2.png" style=""><br>
<br>
<a href="https://postimg.cc/K4R2Z7c4" target="_blank" class="externalLink" rel="nofollow"><img src="https://i.postimg.cc/K4R2Z7c4/vlcsnap-2023-09-05-13h42m45s683.png" class="bbCodeImage LbImage" alt="[​IMG]" data-url="https://i.postimg.cc/K4R2Z7c4/vlcsnap-2023-09-05-13h42m45s683.png"></a> <a href="https://postimg.cc/CzgmvY2Y" target="_blank" class="externalLink" rel="nofollow"><img src="https://i.postimg.cc/CzgmvY2Y/vlcsnap-2023-09-05-13h42m47s811.png" class="bbCodeImage LbImage" alt="[​IMG]" data-url="https://i.postimg.cc/CzgmvY2Y/vlcsnap-2023-09-05-13h42m47s811.png"></a> <a href="https://postimg.cc/H8Q3pPVf" target="_blank" class="externalLink" rel="nofollow"><img src="https://i.postimg.cc/H8Q3pPVf/vlcsnap-2023-09-05-13h42m49s830.png" class="bbCodeImage LbImage" alt="[​IMG]" data-url="https://i.postimg.cc/H8Q3pPVf/vlcsnap-2023-09-05-13h42m49s830.png"></a> <a href="https://postimg.cc/RJrXxzV7" target="_blank" class="externalLink" rel="nofollow"><img src="https://i.postimg.cc/RJrXxzV7/vlcsnap-2023-09-05-13h42m51s923.png" class="bbCodeImage LbImage" alt="[​IMG]" data-url="https://i.postimg.cc/RJrXxzV7/vlcsnap-2023-09-05-13h42m51s923.png"></a> <a href="https://postimg.cc/bZYLhg8B" target="_blank" class="externalLink" rel="nofollow"><img src="https://i.postimg.cc/bZYLhg8B/vlcsnap-2023-09-05-13h42m54s039.png" class="bbCodeImage LbImage" alt="[​IMG]" data-url="https://i.postimg.cc/bZYLhg8B/vlcsnap-2023-09-05-13h42m54s039.png"></a> <a href="https://postimg.cc/23v0F322" target="_blank" class="externalLink" rel="nofollow"><img src="https://i.postimg.cc/23v0F322/vlcsnap-2023-09-05-13h42m56s508.png" class="bbCodeImage LbImage" alt="[​IMG]" data-url="https://i.postimg.cc/23v0F322/vlcsnap-2023-09-05-13h42m56s508.png"></a> <br>
<br>
<i><br>
Me, Myself &amp; I (G‐Eazy cover)<br>
I'm a Mess<br>
Call on Me<br>
Sacrifice<br>
I Got You (with Luísa Sonza)<br>
Say My Name (David Guetta cover)<br>
Hey Mama (David Guetta cover)<br>
Hey Mama (David Guetta cover)<br>
Heart Wants What It Wants<br>
No Broken Hearts<br>
I'm Gonna Show You Crazy<br>
Meant to Be<br>
One In A Million (David Guetta &amp; Bebe Rexha cover)<br>
Take Me Home (Cash Cash cover)<br>
In the Name of Love (Martin Garrix &amp; Bebe Rexha cover)<br>
I’m Good (Blue) (David Guetta &amp; Bebe Rexha cover)<br>
</i><br>
​</div><br>
<div class="bbCodeBlock bbCodeCode">
<div class="type">Code:</div>
<pre>General
ID                                       : 1 (0x1)
Complete name                            : D:\Bebe Rexha - Live @ The Town 2023 UHDTV H265 2160p DD2.0-ilya2129.ts
Format                                   : MPEG-TS
File size                                : 7.62 GiB
Duration                                 : 1 h 5 min
Overall bit rate mode                    : Variable
Overall bit rate                         : 16.6 Mb/s
Frame rate                               : 59.940 FPS

Video
ID                                       : 256 (0x100)
Menu ID                                  : 1 (0x1)
Format                                   : HEVC
Format/Info                              : High Efficiency Video Coding
Format profile                           : Main 10@L5.1@Main
Codec ID                                 : 36
Duration                                 : 1 h 5 min
Bit rate                                 : 15.6 Mb/s
Width                                    : 3 840 pixels
Height                                   : 2 160 pixels
Display aspect ratio                     : 16:9
Frame rate                               : 59.940 (60000/1001) FPS
Color space                              : YUV
Chroma subsampling                       : 4:2:0 (Type 0)
Bit depth                                : 10 bits
Bits/(Pixel*Frame)                       : 0.031
Stream size                              : 7.15 GiB (94%)
Color range                              : Limited
Color primaries                          : BT.709
Transfer characteristics                 : BT.709
Matrix coefficients                      : BT.709

Audio
ID                                       : 257 (0x101)
Menu ID                                  : 1 (0x1)
Format                                   : AC-3
Format/Info                              : Audio Coding 3
Commercial name                          : Dolby Digital
Codec ID                                 : 129
Duration                                 : 1 h 5 min
Bit rate mode                            : Constant
Bit rate                                 : 192 kb/s
Channel(s)                               : 2 channels
Channel layout                           : L R
Sampling rate                            : 48.0 kHz
Frame rate                               : 31.250 FPS (1536 SPF)
Compression mode                         : Lossy
Delay relative to video                  : 95 ms
Stream size                              : 90.1 MiB (1%)
Language                                 : Portuguese
Service kind                             : Complete Main

</pre>
</div>
<div class="bbCodeBlock bbCodeVfcHH HiddenContent">
<div class="attribution type">Hidden Content:</div>
<blockquote>You must reply before you can see the hidden data contained here.</blockquote>
</div>
<div class="messageTextEndMarker">&nbsp;</div>
</blockquote>
</article>]]></description>
                <author><![CDATA[ilya2129]]></author>
                </item>

                
                <item>
                <title><![CDATA[【HD Live Performances】UHDTV 4K - Bruno Mars - Live @ The Town 2023 UHDTV H265 2160p DD2.0-ilya2129]]></title>
                <link><![CDATA[https://sharemania.us/threads/bruno-mars-live-the-town-2023-uhdtv-h265-2160p-dd2-0-ilya2129.227779/]]></link>
                <description><![CDATA[<article>
<blockquote class="messageText SelectQuoteContainer ugc baseHtml">
THANKS
<div class="messageTextEndMarker">&nbsp;</div>
</blockquote>
</article>]]></description>
                <author><![CDATA[ilya2129]]></author>
                </item>

                
                <item>
                <title><![CDATA[【Music Videos】Shakira - Se Quiere, Se Mata (MTV Brazil) (VHS Version) (fan Made)]]></title>
                <link><![CDATA[https://sharemania.us/threads/shakira-se-quiere-se-mata-mtv-brazil-vhs-version-fan-made.227781/]]></link>
                <description><![CDATA[<article>
<blockquote class="messageText SelectQuoteContainer ugc baseHtml">
<div style="text-align: center"><img src="https://i122.fastpic.org/big/2023/0903/f2/ce9f496df0f384cc9c966a9eba2bd3f2.png" class="bbCodeImage LbImage" alt="[​IMG]" data-url="https://i122.fastpic.org/big/2023/0903/f2/ce9f496df0f384cc9c966a9eba2bd3f2.png" style=""><br>
<br>
<a href="https://postimg.cc/8s9VsFs4" target="_blank" class="externalLink" rel="nofollow"><img src="https://i.postimg.cc/8s9VsFs4/vlcsnap-2023-09-05-13h42m23s902.png" class="bbCodeImage LbImage" alt="[​IMG]" data-url="https://i.postimg.cc/8s9VsFs4/vlcsnap-2023-09-05-13h42m23s902.png"></a> <a href="https://postimg.cc/qNpD70cQ" target="_blank" class="externalLink" rel="nofollow"><img src="https://i.postimg.cc/qNpD70cQ/vlcsnap-2023-09-05-13h42m26s412.png" class="bbCodeImage LbImage" alt="[​IMG]" data-url="https://i.postimg.cc/qNpD70cQ/vlcsnap-2023-09-05-13h42m26s412.png"></a> <a href="https://postimg.cc/r0RQHpcy" target="_blank" class="externalLink" rel="nofollow"><img src="https://i.postimg.cc/r0RQHpcy/vlcsnap-2023-09-05-13h42m30s043.png" class="bbCodeImage LbImage" alt="[​IMG]" data-url="https://i.postimg.cc/r0RQHpcy/vlcsnap-2023-09-05-13h42m30s043.png"></a> <a href="https://postimg.cc/Z9MwjdGD" target="_blank" class="externalLink" rel="nofollow"><img src="https://i.postimg.cc/Z9MwjdGD/vlcsnap-2023-09-05-13h42m32s739.png" class="bbCodeImage LbImage" alt="[​IMG]" data-url="https://i.postimg.cc/Z9MwjdGD/vlcsnap-2023-09-05-13h42m32s739.png"></a> <a href="https://postimg.cc/HVwPHjMV" target="_blank" class="externalLink" rel="nofollow"><img src="https://i.postimg.cc/HVwPHjMV/vlcsnap-2023-09-05-13h42m37s437.png" class="bbCodeImage LbImage" alt="[​IMG]" data-url="https://i.postimg.cc/HVwPHjMV/vlcsnap-2023-09-05-13h42m37s437.png"></a> <a href="https://postimg.cc/rKNg3364" target="_blank" class="externalLink" rel="nofollow"><img src="https://i.postimg.cc/rKNg3364/vlcsnap-2023-09-05-13h42m41s051.png" class="bbCodeImage LbImage" alt="[​IMG]" data-url="https://i.postimg.cc/rKNg3364/vlcsnap-2023-09-05-13h42m41s051.png"></a> <br>
<br>
<i><br>
24K Magic<br>
Finesse<br>
Treasure<br>
Liquor Store Blues / Billionaire<br>
Calling All My Lovelies / Wake Up in the Sky<br>
That's What I Like<br>
Please Me (Cardi B &amp; Bruno Mars cover) (Guitar Solo)<br>
Pure Imagination (Instrumental)<br>
Versace on the Floor<br>
It Will Rain<br>
Marry You<br>
Runaway Baby<br>
Fuck You / Young Wild and Free / Grenade / Talking to the Moon / Nothin' on You / Leave the Door Open<br>
When I Was Your Man<br>
Evidências / Still D.R.E (Instrumental)<br>
Locked Out of Heaven<br>
Just the Way You Are<br>
Encore:<br>
Uptown Funk (Mark Ronson cover)<br>
</i><br>
​</div><br>
<div class="bbCodeBlock bbCodeCode">
<div class="type">Code:</div>
<pre>General
ID                                       : 1 (0x1)
Complete name                            : D:\Bruno Mars - Live @ The Town 2023 UHDTV H265 2160p DD2.0-ilya2129.ts
Format                                   : MPEG-TS
File size                                : 11.9 GiB
Duration                                 : 1 h 42 min
Overall bit rate mode                    : Variable
Overall bit rate                         : 16.6 Mb/s
Frame rate                               : 59.940 FPS

Video
ID                                       : 256 (0x100)
Menu ID                                  : 1 (0x1)
Format                                   : HEVC
Format/Info                              : High Efficiency Video Coding
Format profile                           : Main 10@L5.1@Main
Codec ID                                 : 36
Duration                                 : 1 h 42 min
Bit rate                                 : 15.6 Mb/s
Width                                    : 3 840 pixels
Height                                   : 2 160 pixels
Display aspect ratio                     : 16:9
Frame rate                               : 59.940 (60000/1001) FPS
Color space                              : YUV
Chroma subsampling                       : 4:2:0 (Type 0)
Bit depth                                : 10 bits
Bits/(Pixel*Frame)                       : 0.031
Stream size                              : 11.2 GiB (94%)
Color range                              : Limited
Color primaries                          : BT.709
Transfer characteristics                 : BT.709
Matrix coefficients                      : BT.709

Audio
ID                                       : 257 (0x101)
Menu ID                                  : 1 (0x1)
Format                                   : AC-3
Format/Info                              : Audio Coding 3
Commercial name                          : Dolby Digital
Codec ID                                 : 129
Duration                                 : 1 h 42 min
Bit rate mode                            : Constant
Bit rate                                 : 192 kb/s
Channel(s)                               : 2 channels
Channel layout                           : L R
Sampling rate                            : 48.0 kHz
Frame rate                               : 31.250 FPS (1536 SPF)
Compression mode                         : Lossy
Delay relative to video                  : 17 ms
Stream size                              : 141 MiB (1%)
Language                                 : Portuguese
Service kind                             : Complete Main

</pre>
</div>
<div class="bbCodeBlock bbCodeVfcHH HiddenContent">
<div class="attribution type">Hidden Content:</div>
<blockquote>You must reply before you can see the hidden data contained here.</blockquote>
</div>
<div class="messageTextEndMarker">&nbsp;</div>
</blockquote>
</article>]]></description>
                <author><![CDATA[Fan Made]]></author>
                </item>

                </channel></rss>